REM MD5 375211fee833098ce29c20e108adc416
FILE "Choro Q 3 (Japan) (Demo).bin" BINARY
  TRACK 01 MODE2/2352
    INDEX 01 00:00:00
  TRACK 02 AUDIO
    INDEX 00 55:09:17
    INDEX 01 55:11:17
  TRACK 03 AUDIO
    INDEX 00 59:40:48
    INDEX 01 59:42:48
REM LEADOUT 64:30:50
